<svg xmlns="http://www.w3.org/2000/svg" xmlns:xlink="http://www.w3.org/1999/xlink" width="473" height="472" version="1.1" viewBox="0 0 473 472" xml:space="preserve"><desc>Created with Fabric.js 3.6.3</desc><rect width="100%" height="100%" x="0" y="0" fill="rgba(255, 255, 255, 0.67)"/><g><g><g transform="matrix(1.42 0 0 1.42 236.05 236.05) matrix(4.4 0 0 4.4 0 0)"><radialGradient id="SVGID_985" cx="37.4" cy="37.4" r="37.4" fx="37.4" fy="37.4" gradientTransform="matrix(1 0 0 1 -37.4 -37.4)" gradientUnits="userSpaceOnUse"><stop offset="88.263%" style="stop-color:rgba(161,103,161,.27)"/><stop offset="100%" style="stop-color:#5b2a62"/></radialGradient><polygon style="stroke:#080707;stroke-width:5;stroke-dasharray:none;stroke-linecap:butt;stroke-dashoffset:0;stroke-linejoin:miter;stroke-miterlimit:4;fill:url(#SVGID_985);fill-rule:nonzero;opacity:1" points="-15.5 37.4 -37.4 15.5 -37.4 -15.5 -15.5 -37.4 15.5 -37.4 37.4 -15.5 37.4 15.5 15.5 37.4" vector-effect="non-scaling-stroke"/></g><g><path style="stroke:#000;stroke-width:1;stroke-dasharray:none;stroke-linecap:butt;stroke-dashoffset:0;stroke-linejoin:miter;stroke-miterlimit:4;fill:#000;fill-rule:nonzero;opacity:1" stroke-linecap="round" d="m 42.313777 106.17517 v 30 z" transform="matrix(1.42 0 0 1.42 236.05 236.05) matrix(7.56 0 0 7.56 -105.77 0.44) translate(-42.31, -121.18)"/></g><g><path style="stroke:#000;stroke-width:1;stroke-dasharray:none;stroke-linecap:butt;stroke-dashoffset:0;stroke-linejoin:miter;stroke-miterlimit:4;fill:#000;fill-rule:nonzero;opacity:1" stroke-linecap="round" d="m 42.453492 106.51425 l 20.575832 21.83198 z" transform="matrix(1.42 0 0 1.42 236.05 236.05) matrix(7.56 0 0 7.56 -26.93 -27.88) translate(-52.74, -117.43)"/></g><g><path style="stroke:#000;stroke-width:1;stroke-dasharray:none;stroke-linecap:butt;stroke-dashoffset:0;stroke-linejoin:miter;stroke-miterlimit:4;fill:#000;fill-rule:nonzero;opacity:1" stroke-linecap="round" d="M 42.455764 135.83273 L 63.031597 114.00075 Z" transform="matrix(1.42 0 0 1.42 236.05 236.05) matrix(7.56 0 0 7.56 -26.92 28.68) translate(-52.74, -124.92)"/></g><g><path style="stroke:#000;stroke-width:1;stroke-dasharray:none;stroke-linecap:butt;stroke-dashoffset:0;stroke-linejoin:miter;stroke-miterlimit:4;fill:#000;fill-rule:nonzero;opacity:1" stroke-linecap="round" d="m 70.223693 106.17188 v 30 z" transform="matrix(1.42 0 0 1.42 236.05 236.05) matrix(7.56 0 0 7.56 105.1 0.41) translate(-70.22, -121.17)"/></g><g><path style="stroke:#000;stroke-width:1;stroke-dasharray:none;stroke-linecap:butt;stroke-dashoffset:0;stroke-linejoin:miter;stroke-miterlimit:4;fill:#000;fill-rule:nonzero;opacity:1" stroke-linecap="round" d="M 70.083978 106.51096 L 49.508146 128.34294 Z" transform="matrix(1.42 0 0 1.42 236.05 236.05) matrix(7.56 0 0 7.56 26.37 -27.91) translate(-59.8, -117.43)"/></g><g><path style="stroke:#000;stroke-width:1;stroke-dasharray:none;stroke-linecap:butt;stroke-dashoffset:0;stroke-linejoin:miter;stroke-miterlimit:4;fill:#fff;fill-rule:nonzero;opacity:1" stroke-linecap="round" d="M 70.081706 135.82944 L 49.505873 113.99746 Z" transform="matrix(1.42 0 0 1.42 236.05 236.05) matrix(7.56 0 0 7.56 26.35 28.66) translate(-59.79, -124.91)"/></g><g><path style="stroke:#000;stroke-width:1.49;stroke-dasharray:none;stroke-linecap:butt;stroke-dashoffset:0;stroke-linejoin:miter;stroke-miterlimit:4;fill:#000;fill-rule:nonzero;opacity:1" stroke-linecap="round" d="M 118.27421 176.18812 L 87.651851 143.69642 Z" transform="matrix(1.42 0 0 1.42 236.05 236.05) matrix(3.78 0 0 3.78 5.1 50.46) translate(-102.96, -159.94)"/></g><g><path style="stroke:#000;stroke-width:1.49;stroke-dasharray:none;stroke-linecap:butt;stroke-dashoffset:0;stroke-linejoin:miter;stroke-miterlimit:4;fill:#000;fill-rule:nonzero;opacity:1" stroke-linecap="round" d="M 118.27471 117.2794 L 87.65235 149.7711 Z" transform="matrix(1.42 0 0 1.42 236.05 236.05) matrix(3.78 0 0 3.78 5.1 -49.38) translate(-102.96, -133.53)"/></g><g><path style="stroke:#000;stroke-width:1.49;stroke-dasharray:none;stroke-linecap:butt;stroke-dashoffset:0;stroke-linejoin:miter;stroke-miterlimit:4;fill:#fff;fill-opacity:0;fill-rule:nonzero;opacity:1" stroke-linecap="round" d="m 84.673254 117.18087 l 30.622366 32.49169 z" transform="matrix(1.42 0 0 1.42 236.05 236.05) matrix(3.78 0 0 3.78 -6.16 -49.75) translate(-99.98, -133.43)"/></g><g><path style="stroke:#000;stroke-width:2.49;stroke-dasharray:none;stroke-linecap:butt;stroke-dashoffset:0;stroke-linejoin:miter;stroke-miterlimit:4;fill:#fff;fill-rule:nonzero;opacity:1" stroke-linecap="round" d="m 84.672754 176.08958 l 30.622386 -32.4917 z" transform="matrix(1.42 0 0 1.42 236.05 236.05) matrix(3.78 0 0 3.78 -4.27 51.98) translate(-99.98, -159.84)"/></g><g><path style="stroke:#000;stroke-width:1;stroke-dasharray:none;stroke-linecap:round;stroke-dashoffset:0;stroke-linejoin:round;stroke-miterlimit:10;fill:none;fill-rule:nonzero;opacity:1" stroke-linecap="round" d="M 287.999 245 L 288.001 245" transform="matrix(1.42 0 0 1.42 236.05 236.05) matrix(1 0 0 1 -31.56 5.44) translate(-288, -245)"/></g></g></g></svg>