<?xml version="1.0" encoding="UTF-8" standalone="no" ?>
<!DOCTYPE svg PUBLIC "-//W3C//DTD SVG 1.1//EN" "http://www.w3.org/Graphics/SVG/1.1/DTD/svg11.dtd">
<svg xmlns="http://www.w3.org/2000/svg" xmlns:xlink="http://www.w3.org/1999/xlink" version="1.1" width="473" height="472" viewBox="0 0 473 472" xml:space="preserve">
<desc>Created with Fabric.js 3.6.3</desc>
<defs>
</defs>
<rect x="0" y="0" width="100%" height="100%" fill="rgba(255, 255, 255, 0)"></rect>
<g transform="matrix(6.25 0 0 6.25 234.73 235.73)"  >
<radialGradient id="SVGID_985" gradientUnits="userSpaceOnUse" gradientTransform="matrix(1 0 0 1 -37.4 -37.4)"  cx="37.4" cy="37.400000000000006" r="37.4" fx="37.4" fy="37.400000000000006">
<stop offset="88.263%" style="stop-color:rgba(161, 103, 161, 0.27);"/>
<stop offset="100%" style="stop-color:rgba(91, 42, 98, 1);"/>
</radialGradient>
<polygon style="stroke: rgb(8,7,7); stroke-width: 2; stroke-dasharray: none; stroke-linecap: butt; stroke-dashoffset: 0; stroke-linejoin: miter; stroke-miterlimit: 4; fill: url(#SVGID_985); fill-rule: nonzero; opacity: 1;" vector-effect="non-scaling-stroke"  points="-15.5,37.4 -37.4,15.5 -37.4,-15.5 -15.5,-37.4 15.5,-37.4 37.4,-15.5 37.4,15.5 15.5,37.4 " />
</g>
<g transform="matrix(10.74 0 0 10.74 86.03 237.85)"  >
<path style="stroke: rgb(0,0,0); stroke-width: 1; stroke-dasharray: none; stroke-linecap: butt; stroke-dashoffset: 0; stroke-linejoin: miter; stroke-miterlimit: 4; fill: rgb(0,0,0); fill-rule: nonzero; opacity: 1;"  transform=" translate(-42.31, -121.18)" d="m 42.313777 106.17517 v 30 z" stroke-linecap="round" />
</g>
<g transform="matrix(10.74 0 0 10.74 197.98 197.64)"  >
<path style="stroke: rgb(0,0,0); stroke-width: 1; stroke-dasharray: none; stroke-linecap: butt; stroke-dashoffset: 0; stroke-linejoin: miter; stroke-miterlimit: 4; fill: rgb(0,0,0); fill-rule: nonzero; opacity: 1;"  transform=" translate(-52.74, -117.43)" d="m 42.453492 106.51425 l 20.575832 21.83198 z" stroke-linecap="round" />
</g>
<g transform="matrix(10.74 0 0 10.74 197.99 277.96)"  >
<path style="stroke: rgb(0,0,0); stroke-width: 1; stroke-dasharray: none; stroke-linecap: butt; stroke-dashoffset: 0; stroke-linejoin: miter; stroke-miterlimit: 4; fill: rgb(0,0,0); fill-rule: nonzero; opacity: 1;"  transform=" translate(-52.74, -124.92)" d="M 42.455764 135.83273 L 63.031597 114.00075 Z" stroke-linecap="round" />
</g>
<g transform="matrix(10.74 0 0 10.74 385.47 237.81)"  >
<path style="stroke: rgb(0,0,0); stroke-width: 1; stroke-dasharray: none; stroke-linecap: butt; stroke-dashoffset: 0; stroke-linejoin: miter; stroke-miterlimit: 4; fill: rgb(0,0,0); fill-rule: nonzero; opacity: 1;"  transform=" translate(-70.22, -121.17)" d="m 70.223693 106.17188 v 30 z" stroke-linecap="round" />
</g>
<g transform="matrix(10.74 0 0 10.74 273.67 197.6)"  >
<path style="stroke: rgb(0,0,0); stroke-width: 1; stroke-dasharray: none; stroke-linecap: butt; stroke-dashoffset: 0; stroke-linejoin: miter; stroke-miterlimit: 4; fill: rgb(0,0,0); fill-rule: nonzero; opacity: 1;"  transform=" translate(-59.8, -117.43)" d="M 70.083978 106.51096 L 49.508146 128.34294 Z" stroke-linecap="round" />
</g>
<g transform="matrix(10.74 0 0 10.74 273.64 277.93)"  >
<path style="stroke: rgb(0,0,0); stroke-width: 1; stroke-dasharray: none; stroke-linecap: butt; stroke-dashoffset: 0; stroke-linejoin: miter; stroke-miterlimit: 4; fill: rgb(255,255,255); fill-rule: nonzero; opacity: 1;"  transform=" translate(-59.79, -124.91)" d="M 70.081706 135.82944 L 49.505873 113.99746 Z" stroke-linecap="round" />
</g>
<g transform="matrix(5.37 0 0 5.37 243.47 308.87)"  >
<path style="stroke: rgb(0,0,0); stroke-width: 1.49; stroke-dasharray: none; stroke-linecap: butt; stroke-dashoffset: 0; stroke-linejoin: miter; stroke-miterlimit: 4; fill: rgb(0,0,0); fill-rule: nonzero; opacity: 1;"  transform=" translate(-102.96, -159.94)" d="M 118.27421 176.18812 L 87.651851 143.69642 Z" stroke-linecap="round" />
</g>
<g transform="matrix(5.37 0 0 5.37 243.47 167.1)"  >
<path style="stroke: rgb(0,0,0); stroke-width: 1.49; stroke-dasharray: none; stroke-linecap: butt; stroke-dashoffset: 0; stroke-linejoin: miter; stroke-miterlimit: 4; fill: rgb(0,0,0); fill-rule: nonzero; opacity: 1;"  transform=" translate(-102.96, -133.53)" d="M 118.27471 117.2794 L 87.65235 149.7711 Z" stroke-linecap="round" />
</g>
<g transform="matrix(5.37 0 0 5.37 227.48 166.57)"  >
<path style="stroke: rgb(0,0,0); stroke-width: 1.49; stroke-dasharray: none; stroke-linecap: butt; stroke-dashoffset: 0; stroke-linejoin: miter; stroke-miterlimit: 4; fill: rgb(255,255,255); fill-opacity: 0; fill-rule: nonzero; opacity: 1;"  transform=" translate(-99.98, -133.43)" d="m 84.673254 117.18087 l 30.622366 32.49169 z" stroke-linecap="round" />
</g>
<g transform="matrix(5.37 0 0 5.37 230.17 311.03)"  >
<path style="stroke: rgb(0,0,0); stroke-width: 2.49; stroke-dasharray: none; stroke-linecap: butt; stroke-dashoffset: 0; stroke-linejoin: miter; stroke-miterlimit: 4; fill: rgb(255,255,255); fill-rule: nonzero; opacity: 1;"  transform=" translate(-99.98, -159.84)" d="m 84.672754 176.08958 l 30.622386 -32.4917 z" stroke-linecap="round" />
</g>
<g transform="matrix(1.42 0 0 1.42 191.41 244.95)"  >
<path style="stroke: rgb(0,0,0); stroke-width: 1; stroke-dasharray: none; stroke-linecap: round; stroke-dashoffset: 0; stroke-linejoin: round; stroke-miterlimit: 10; fill: none; fill-rule: nonzero; opacity: 1;"  transform=" translate(-288, -245)" d="M 287.999 245 L 288.001 245" stroke-linecap="round" />
</g>
</svg>